<!DOCTYPE svg PUBLIC "-//W3C//DTD SVG 1.1//EN" "http://www.w3.org/Graphics/SVG/1.1/DTD/svg11.dtd">
<!-- Uploaded to: SVG Repo, www.svgrepo.com, Transformed by: SVG Repo Mixer Tools -->
<svg fill="#000000" width="800px" height="800px" viewBox="0 0 24 24" id="down-alt" data-name="Multi Color" xmlns="http://www.w3.org/2000/svg" class="icon multi-color">
<g id="SVGRepo_bgCarrier" stroke-width="0"/>
<g id="SVGRepo_tracerCarrier" stroke-linecap="round" stroke-linejoin="round"/>
<g id="SVGRepo_iconCarrier">
<title style="stroke-width: 2;">down alt</title>
<path id="secondary-fill" d="M19.36,11.81l-.79-1.05a1,1,0,0,0-1.36-.24L15,12V4a1,1,0,0,0-1-1H10A1,1,0,0,0,9,4v8L6.79,10.52a1,1,0,0,0-1.36.24l-.79,1.05,6.13,4.77a2,2,0,0,0,2.46,0Z" style="fill: #e93323; stroke-width: 2;"/>
<path id="primary-stroke" d="M3.59,13.48,5.43,11a1,1,0,0,1,1.36-.23L9,12.27v-8a1,1,0,0,1,1-1h4a1,1,0,0,1,1,1v8l2.21-1.48a1,1,0,0,1,1.36.23l1.84,2.46a1,1,0,0,1-.19,1.39l-7.61,5.92a1,1,0,0,1-1.22,0L3.78,14.87A1,1,0,0,1,3.59,13.48Z" style="fill: none; stroke: #000000; stroke-linecap: round; stroke-linejoin: round; stroke-width: 2;"/>
</g>
</svg>